<?xml version="1.0" encoding="UTF-8"?>
<svg width="700pt" height="700pt" version="1.1" viewBox="0 0 700 700" xmlns="http://www.w3.org/2000/svg" xmlns:xlink="http://www.w3.org/1999/xlink">
 <defs>
  <symbol id="w" overflow="visible">
   <path d="m5.5-0.32812c-0.28125 0.14844-0.57812 0.25781-0.89062 0.32812-0.30469 0.070312-0.62109 0.10938-0.95312 0.10938-1 0-1.793-0.27344-2.375-0.82812-0.58594-0.55078-0.875-1.3047-0.875-2.2656 0-0.95703 0.28906-1.7109 0.875-2.2656 0.58203-0.5625 1.375-0.84375 2.375-0.84375 0.33203 0 0.64844 0.042969 0.95312 0.125 0.3125 0.074219 0.60938 0.18359 0.89062 0.32812v1.2344c-0.29297-0.19531-0.57812-0.33594-0.85938-0.42188-0.27344-0.09375-0.5625-0.14062-0.875-0.14062-0.54297 0-0.97656 0.17969-1.2969 0.53125-0.3125 0.35547-0.46875 0.83984-0.46875 1.4531 0 0.61719 0.15625 1.1016 0.46875 1.4531 0.32031 0.35547 0.75391 0.53125 1.2969 0.53125 0.3125 0 0.60156-0.046875 0.875-0.14062 0.28125-0.09375 0.56641-0.23438 0.85938-0.42188z"/>
  </symbol>
  <symbol id="d" overflow="visible">
   <path d="m4.0156-3.2656c-0.125-0.0625-0.25-0.10156-0.375-0.125-0.125-0.03125-0.25-0.046875-0.375-0.046875-0.36719 0-0.64844 0.12109-0.84375 0.35938-0.19922 0.23047-0.29688 0.57031-0.29688 1.0156v2.0625h-1.4375v-4.4844h1.4375v0.73438c0.1875-0.28906 0.39453-0.50391 0.625-0.64062 0.23828-0.13281 0.52344-0.20312 0.85938-0.20312 0.050781 0 0.10156 0.007812 0.15625 0.015625 0.0625 0 0.14453 0.007813 0.25 0.015625z"/>
  </symbol>
  <symbol id="a" overflow="visible">
   <path d="m5.1719-2.25v0.40625h-3.3594c0.03125 0.33594 0.14844 0.58594 0.35938 0.75 0.20703 0.16797 0.5 0.25 0.875 0.25 0.30078 0 0.60938-0.039062 0.92188-0.125 0.32031-0.09375 0.64844-0.22656 0.98438-0.40625v1.1094c-0.33594 0.125-0.67188 0.21875-1.0156 0.28125s-0.68359 0.09375-1.0156 0.09375c-0.8125 0-1.4453-0.20312-1.8906-0.60938-0.44922-0.41406-0.67188-0.99219-0.67188-1.7344 0-0.73828 0.21875-1.3164 0.65625-1.7344 0.4375-0.41406 1.0469-0.625 1.8281-0.625 0.69531 0 1.2578 0.21484 1.6875 0.64062 0.42578 0.41797 0.64062 0.98438 0.64062 1.7031zm-1.4844-0.48438c0-0.26953-0.078125-0.48828-0.23438-0.65625-0.15625-0.16406-0.36719-0.25-0.625-0.25-0.27344 0-0.49609 0.078125-0.67188 0.23438-0.17969 0.15625-0.28906 0.38281-0.32812 0.67188z"/>
  </symbol>
  <symbol id="j" overflow="visible">
   <path d="m2.7031-2.0156c-0.30469 0-0.53125 0.054687-0.6875 0.15625-0.14844 0.09375-0.21875 0.24219-0.21875 0.4375 0 0.1875 0.054687 0.33594 0.17188 0.4375 0.125 0.09375 0.29688 0.14062 0.51562 0.14062 0.26953 0 0.49219-0.09375 0.67188-0.28125 0.1875-0.19531 0.28125-0.44141 0.28125-0.73438v-0.15625zm2.1875-0.54688v2.5625h-1.4531v-0.67188c-0.1875 0.28125-0.40234 0.48438-0.64062 0.60938-0.24219 0.11328-0.53125 0.17188-0.875 0.17188-0.46875 0-0.85156-0.13281-1.1406-0.40625-0.28125-0.26953-0.42188-0.61719-0.42188-1.0469 0-0.53125 0.17578-0.91406 0.53125-1.1562 0.36328-0.25 0.92969-0.375 1.7031-0.375h0.84375v-0.10938c0-0.22656-0.089844-0.39453-0.26562-0.5-0.17969-0.10156-0.45312-0.15625-0.82812-0.15625-0.3125 0-0.60547 0.03125-0.875 0.09375-0.26172 0.0625-0.5 0.15625-0.71875 0.28125v-1.0938c0.30078-0.082031 0.60938-0.14062 0.92188-0.17188 0.3125-0.039062 0.61719-0.0625 0.92188-0.0625 0.8125 0 1.3945 0.16406 1.75 0.48438 0.36328 0.3125 0.54688 0.82812 0.54688 1.5469z"/>
  </symbol>
  <symbol id="c" overflow="visible">
   <path d="m2.25-5.7656v1.2812h1.4844v1.0312h-1.4844v1.8906c0 0.21094 0.039062 0.35156 0.125 0.42188 0.082031 0.074219 0.25 0.10938 0.5 0.10938h0.73438v1.0312h-1.2344c-0.5625 0-0.96484-0.11328-1.2031-0.34375-0.23047-0.23828-0.34375-0.64453-0.34375-1.2188v-1.8906h-0.71875v-1.0312h0.71875v-1.2812z"/>
  </symbol>
  <symbol id="i" overflow="visible">
   <path d="m3.7344-3.8281v-2.4062h1.4531v6.2344h-1.4531v-0.65625c-0.19922 0.27344-0.41797 0.46875-0.65625 0.59375-0.23047 0.11328-0.5 0.17188-0.8125 0.17188-0.55469 0-1.0078-0.21875-1.3594-0.65625-0.35547-0.4375-0.53125-1-0.53125-1.6875 0-0.69531 0.17578-1.2656 0.53125-1.7031 0.35156-0.4375 0.80469-0.65625 1.3594-0.65625 0.3125 0 0.58203 0.0625 0.8125 0.1875 0.23828 0.125 0.45703 0.32031 0.65625 0.57812zm-0.9375 2.9062c0.30078 0 0.53125-0.10938 0.6875-0.32812 0.16406-0.22656 0.25-0.55469 0.25-0.98438 0-0.42578-0.085937-0.75-0.25-0.96875-0.15625-0.22656-0.38672-0.34375-0.6875-0.34375-0.30469 0-0.53906 0.11719-0.70312 0.34375-0.15625 0.21875-0.23438 0.54297-0.23438 0.96875 0 0.42969 0.078125 0.75781 0.23438 0.98438 0.16406 0.21875 0.39844 0.32812 0.70312 0.32812z"/>
  </symbol>
  <symbol id="h" overflow="visible">
   <path d="m3.0781-0.92188c0.30078 0 0.53125-0.10938 0.6875-0.32812 0.16406-0.22656 0.25-0.55469 0.25-0.98438 0-0.42578-0.085937-0.75-0.25-0.96875-0.15625-0.22656-0.38672-0.34375-0.6875-0.34375-0.3125 0-0.55469 0.11719-0.71875 0.34375-0.15625 0.21875-0.23438 0.54297-0.23438 0.96875 0 0.41797 0.078125 0.74219 0.23438 0.96875 0.16406 0.23047 0.40625 0.34375 0.71875 0.34375zm-0.95312-2.9062c0.19531-0.25781 0.41406-0.45312 0.65625-0.57812 0.23828-0.125 0.51562-0.1875 0.82812-0.1875 0.55078 0 1.0039 0.21875 1.3594 0.65625 0.35156 0.4375 0.53125 1.0078 0.53125 1.7031 0 0.6875-0.17969 1.25-0.53125 1.6875-0.35547 0.4375-0.80859 0.65625-1.3594 0.65625-0.3125 0-0.58984-0.058594-0.82812-0.17188-0.24219-0.125-0.46094-0.32031-0.65625-0.59375v0.65625h-1.4375v-6.2344h1.4375z"/>
  </symbol>
  <symbol id="g" overflow="visible">
   <path d="m0.09375-4.4844h1.4375l1.2031 3.0469 1.0312-3.0469h1.4375l-1.8906 4.9062c-0.1875 0.5-0.41406 0.84766-0.67188 1.0469-0.25 0.19531-0.57812 0.29688-0.98438 0.29688h-0.82812v-0.9375h0.4375c0.25 0 0.42578-0.042969 0.53125-0.125 0.11328-0.074219 0.20312-0.21094 0.26562-0.40625l0.03125-0.125z"/>
  </symbol>
  <symbol id="f" overflow="visible">
   <path d="m0.75-5.9844h1.5469v2.2812h2.2656v-2.2812h1.5469v5.9844h-1.5469v-2.5312h-2.2656v2.5312h-1.5469z"/>
  </symbol>
  <symbol id="b" overflow="visible">
   <path d="m2.8281-3.5625c-0.32422 0-0.57031 0.11719-0.73438 0.34375-0.16797 0.21875-0.25 0.54688-0.25 0.98438 0 0.42969 0.082031 0.75781 0.25 0.98438 0.16406 0.23047 0.41016 0.34375 0.73438 0.34375 0.3125 0 0.55078-0.11328 0.71875-0.34375 0.16406-0.22656 0.25-0.55469 0.25-0.98438 0-0.4375-0.085937-0.76562-0.25-0.98438-0.16797-0.22656-0.40625-0.34375-0.71875-0.34375zm0-1.0312c0.76953 0 1.3672 0.21094 1.7969 0.625 0.4375 0.41797 0.65625 0.99609 0.65625 1.7344 0 0.73047-0.21875 1.3047-0.65625 1.7188-0.42969 0.41797-1.0273 0.625-1.7969 0.625-0.78125 0-1.3906-0.20703-1.8281-0.625-0.42969-0.41406-0.64062-0.98828-0.64062-1.7188 0-0.73828 0.21094-1.3164 0.64062-1.7344 0.4375-0.41406 1.0469-0.625 1.8281-0.625z"/>
  </symbol>
  <symbol id="v" overflow="visible">
   <path d="m2.125-0.65625v2.3594h-1.4375v-6.1875h1.4375v0.65625c0.19531-0.25781 0.41406-0.45312 0.65625-0.57812 0.23828-0.125 0.51562-0.1875 0.82812-0.1875 0.55078 0 1.0039 0.21875 1.3594 0.65625 0.35156 0.4375 0.53125 1.0078 0.53125 1.7031 0 0.6875-0.17969 1.25-0.53125 1.6875-0.35547 0.4375-0.80859 0.65625-1.3594 0.65625-0.3125 0-0.58984-0.058594-0.82812-0.17188-0.24219-0.125-0.46094-0.32031-0.65625-0.59375zm0.95312-2.8906c-0.3125 0-0.55469 0.11719-0.71875 0.34375-0.15625 0.21875-0.23438 0.54297-0.23438 0.96875 0 0.41797 0.078125 0.74219 0.23438 0.96875 0.16406 0.23047 0.40625 0.34375 0.71875 0.34375 0.30078 0 0.53125-0.10938 0.6875-0.32812 0.16406-0.22656 0.25-0.55469 0.25-0.98438 0-0.42578-0.085937-0.75-0.25-0.96875-0.15625-0.22656-0.38672-0.34375-0.6875-0.34375z"/>
  </symbol>
  <symbol id="u" overflow="visible">
   <path d="m0.6875-6.2344h1.4375v3.3906l1.6406-1.6406h1.6719l-2.1875 2.0625 2.3594 2.4219h-1.7344l-1.75-1.875v1.875h-1.4375z"/>
  </symbol>
  <symbol id="t" overflow="visible">
   <path d="m0.6875-4.4844h1.4375v4.4844h-1.4375zm0-1.75h1.4375v1.1719h-1.4375z"/>
  </symbol>
  <symbol id="e" overflow="visible">
   <path d="m5.2031-2.7344v2.7344h-1.4531v-2.0938c0-0.38281-0.011719-0.64844-0.03125-0.79688-0.011719-0.14453-0.039062-0.25391-0.078125-0.32812-0.054687-0.09375-0.13281-0.16406-0.23438-0.21875-0.09375-0.050781-0.20312-0.078125-0.32812-0.078125-0.29297 0-0.52734 0.12109-0.70312 0.35938-0.16797 0.23047-0.25 0.54688-0.25 0.95312v2.2031h-1.4375v-4.4844h1.4375v0.65625c0.21875-0.25781 0.44531-0.45312 0.6875-0.57812 0.23828-0.125 0.50391-0.1875 0.79688-0.1875 0.51953 0 0.91406 0.16406 1.1875 0.48438 0.26953 0.3125 0.40625 0.77344 0.40625 1.375z"/>
  </symbol>
  <symbol id="s" overflow="visible">
   <path d="m4.1875-4.3438v1.0938c-0.30469-0.13281-0.60156-0.23438-0.89062-0.29688-0.28125-0.0625-0.54688-0.09375-0.79688-0.09375-0.27344 0-0.47656 0.039063-0.60938 0.10938-0.13672 0.0625-0.20312 0.16797-0.20312 0.3125 0 0.11719 0.046875 0.20312 0.14062 0.26562 0.10156 0.054687 0.28516 0.09375 0.54688 0.125l0.25 0.046875c0.73828 0.09375 1.2344 0.25 1.4844 0.46875 0.25781 0.21094 0.39062 0.53906 0.39062 0.98438 0 0.48047-0.17969 0.83984-0.53125 1.0781-0.35547 0.24219-0.88281 0.35938-1.5781 0.35938-0.30469 0-0.60938-0.027344-0.92188-0.078125-0.3125-0.039062-0.63672-0.10938-0.96875-0.20312v-1.0781c0.28125 0.13672 0.57031 0.24219 0.875 0.3125 0.30078 0.0625 0.60156 0.09375 0.90625 0.09375 0.28125 0 0.48828-0.035156 0.625-0.10938 0.14453-0.070313 0.21875-0.1875 0.21875-0.34375 0-0.125-0.046875-0.21875-0.14062-0.28125s-0.28906-0.11328-0.57812-0.15625l-0.25-0.03125c-0.64844-0.070313-1.1016-0.21875-1.3594-0.4375-0.25-0.21875-0.375-0.54688-0.375-0.98438 0-0.47656 0.16016-0.83203 0.48438-1.0625 0.33203-0.22656 0.83203-0.34375 1.5-0.34375 0.26953 0 0.55078 0.023438 0.84375 0.0625 0.28906 0.042969 0.60156 0.10547 0.9375 0.1875z"/>
  </symbol>
  <symbol id="r" overflow="visible">
   <path d="m3.6406-6.2344v0.9375h-0.79688c-0.19922 0-0.33984 0.039063-0.42188 0.10938-0.085937 0.074219-0.125 0.20312-0.125 0.39062v0.3125h1.2344v1.0312h-1.2344v3.4531h-1.4219v-3.4531h-0.71875v-1.0312h0.71875v-0.3125c0-0.48828 0.13281-0.84766 0.40625-1.0781 0.26953-0.23828 0.69141-0.35938 1.2656-0.35938z"/>
  </symbol>
  <symbol id="q" overflow="visible">
   <path d="m4.8438-3.7344c0.1875-0.28125 0.40625-0.49219 0.65625-0.64062 0.25-0.14453 0.51953-0.21875 0.8125-0.21875 0.51953 0 0.91406 0.16406 1.1875 0.48438 0.26953 0.3125 0.40625 0.77344 0.40625 1.375v2.7344h-1.4531v-2.3438-0.09375c0.007813-0.039062 0.015625-0.097656 0.015625-0.17188 0-0.3125-0.046875-0.53906-0.14062-0.6875-0.09375-0.14453-0.24609-0.21875-0.45312-0.21875-0.27344 0-0.48438 0.11719-0.64062 0.34375-0.14844 0.21875-0.21875 0.54297-0.21875 0.96875v2.2031h-1.4531v-2.3438c0-0.48828-0.042969-0.80469-0.125-0.95312-0.085938-0.14453-0.23438-0.21875-0.45312-0.21875-0.27344 0-0.48438 0.11719-0.64062 0.34375-0.14844 0.23047-0.21875 0.55469-0.21875 0.96875v2.2031h-1.4375v-4.4844h1.4375v0.65625c0.17578-0.25 0.37891-0.4375 0.60938-0.5625 0.22656-0.13281 0.47656-0.20312 0.75-0.20312 0.3125 0 0.58203 0.078125 0.8125 0.23438 0.23828 0.14844 0.42188 0.35547 0.54688 0.625z"/>
  </symbol>
  <symbol id="p" overflow="visible">
   <path d="m5.2031-2.7344v2.7344h-1.4531v-2.0781c0-0.39453-0.011719-0.66406-0.03125-0.8125-0.011719-0.14453-0.039062-0.25391-0.078125-0.32812-0.054687-0.09375-0.13281-0.16406-0.23438-0.21875-0.09375-0.050781-0.20312-0.078125-0.32812-0.078125-0.29297 0-0.52734 0.12109-0.70312 0.35938-0.16797 0.23047-0.25 0.54688-0.25 0.95312v2.2031h-1.4375v-6.2344h1.4375v2.4062c0.21875-0.25781 0.44531-0.45312 0.6875-0.57812 0.23828-0.125 0.50391-0.1875 0.79688-0.1875 0.51953 0 0.91406 0.16406 1.1875 0.48438 0.26953 0.3125 0.40625 0.77344 0.40625 1.375z"/>
  </symbol>
  <symbol id="o" overflow="visible">
   <path d="m0.75-5.9844h1.7188l2.1875 4.1094v-4.1094h1.4531v5.9844h-1.7188l-2.1719-4.1094v4.1094h-1.4688z"/>
  </symbol>
  <symbol id="n" overflow="visible">
   <path d="m0.64062-1.75v-2.7344h1.4375v0.45312 0.90625 0.73438c0 0.36719 0.003906 0.625 0.015625 0.78125 0.019531 0.15625 0.054688 0.27344 0.10938 0.34375 0.050781 0.09375 0.125 0.16797 0.21875 0.21875 0.10156 0.054687 0.21094 0.078125 0.32812 0.078125 0.30078 0 0.53516-0.11328 0.70312-0.34375 0.17578-0.22656 0.26562-0.54688 0.26562-0.95312v-2.2188h1.4375v4.4844h-1.4375v-0.65625c-0.21875 0.27344-0.44922 0.46875-0.6875 0.59375-0.24219 0.11328-0.50781 0.17188-0.79688 0.17188-0.52344 0-0.91797-0.15625-1.1875-0.46875-0.27344-0.32031-0.40625-0.78516-0.40625-1.3906z"/>
  </symbol>
  <symbol id="m" overflow="visible">
   <path d="m0.75-5.9844h2.5625c0.75781 0 1.3438 0.17188 1.75 0.51562 0.40625 0.33594 0.60938 0.8125 0.60938 1.4375s-0.20312 1.1094-0.60938 1.4531c-0.40625 0.33594-0.99219 0.5-1.75 0.5h-1.0156v2.0781h-1.5469zm1.5469 1.125v1.6719h0.84375c0.30078 0 0.53125-0.070312 0.6875-0.21875 0.16406-0.14453 0.25-0.35156 0.25-0.625 0-0.26953-0.085937-0.47266-0.25-0.60938-0.15625-0.14453-0.38672-0.21875-0.6875-0.21875z"/>
  </symbol>
  <symbol id="l" overflow="visible">
   <path d="m0.6875-4.4844h1.4375v4.4062c0 0.60156-0.14844 1.0625-0.4375 1.375-0.29297 0.3125-0.71094 0.46875-1.25 0.46875h-0.70312v-0.9375h0.23438c0.28125 0 0.46875-0.0625 0.5625-0.1875 0.10156-0.125 0.15625-0.36719 0.15625-0.71875zm0-1.75h1.4375v1.1719h-1.4375z"/>
  </symbol>
  <symbol id="k" overflow="visible">
   <path d="m4.3125-4.3438v1.1719c-0.19922-0.13281-0.39844-0.23438-0.59375-0.29688-0.1875-0.0625-0.39062-0.09375-0.60938-0.09375-0.39844 0-0.71094 0.11719-0.9375 0.34375-0.21875 0.23047-0.32812 0.55859-0.32812 0.98438 0 0.41797 0.10938 0.74609 0.32812 0.98438 0.22656 0.23047 0.53906 0.34375 0.9375 0.34375 0.22656 0 0.44141-0.03125 0.64062-0.09375 0.20703-0.070312 0.39453-0.17578 0.5625-0.3125v1.1875c-0.21875 0.074219-0.44922 0.12891-0.6875 0.17188-0.23047 0.039062-0.46094 0.0625-0.6875 0.0625-0.8125 0-1.4492-0.20312-1.9062-0.60938-0.44922-0.41406-0.67188-0.99219-0.67188-1.7344 0-0.73828 0.22266-1.3164 0.67188-1.7344 0.45703-0.41406 1.0938-0.625 1.9062-0.625 0.22656 0 0.45703 0.023438 0.6875 0.0625 0.22656 0.042969 0.45703 0.10547 0.6875 0.1875z"/>
  </symbol>
 </defs>
 <g>
  <path d="m289.03 0c-85.152 0-151.95 26.113-200.33 78.977-48.484 52.863-72.613 135.33-72.613 247.67v233.35h280.7v-252.05h-135.47c0-61.723 10.078-107.61 29.844-137.66 19.758-30.047 52.344-45.16 97.875-45.16v-125.13zm384.94 0c-42.574 0-80.484 6.2656-113.79 19.098-33.305 12.836-61.918 32.496-85.348 59.281-23.426 26.891-41.379 60.996-53.906 102.45-12.426 41.559-18.703 90.004-18.703 145.82v233.35h281.69v-252.05h-135.28c0-61.723 9.8828-107.61 29.645-137.66 19.758-30.047 51.684-45.16 95.684-45.16v-125.13z"/>
  <use x="16.085938" y="584.617188" xlink:href="#w"/>
  <use x="22.109375" y="584.617188" xlink:href="#d"/>
  <use x="26.15625" y="584.617188" xlink:href="#a"/>
  <use x="31.722656" y="584.617188" xlink:href="#j"/>
  <use x="37.257812" y="584.617188" xlink:href="#c"/>
  <use x="41.183594" y="584.617188" xlink:href="#a"/>
  <use x="46.746094" y="584.617188" xlink:href="#i"/>
  <use x="55.476562" y="584.617188" xlink:href="#h"/>
  <use x="61.351562" y="584.617188" xlink:href="#g"/>
  <use x="69.558594" y="584.617188" xlink:href="#f"/>
  <use x="76.425781" y="584.617188" xlink:href="#b"/>
  <use x="82.0625" y="584.617188" xlink:href="#v"/>
  <use x="87.9375" y="584.617188" xlink:href="#u"/>
  <use x="93.394531" y="584.617188" xlink:href="#t"/>
  <use x="96.207031" y="584.617188" xlink:href="#e"/>
  <use x="102.046875" y="584.617188" xlink:href="#s"/>
  <use x="16.085938" y="592.824219" xlink:href="#r"/>
  <use x="19.65625" y="592.824219" xlink:href="#d"/>
  <use x="23.703125" y="592.824219" xlink:href="#b"/>
  <use x="29.34375" y="592.824219" xlink:href="#q"/>
  <use x="40.75" y="592.824219" xlink:href="#c"/>
  <use x="44.671875" y="592.824219" xlink:href="#p"/>
  <use x="50.511719" y="592.824219" xlink:href="#a"/>
  <use x="58.9375" y="592.824219" xlink:href="#o"/>
  <use x="65.804688" y="592.824219" xlink:href="#b"/>
  <use x="71.441406" y="592.824219" xlink:href="#n"/>
  <use x="77.28125" y="592.824219" xlink:href="#e"/>
  <use x="85.980469" y="592.824219" xlink:href="#m"/>
  <use x="91.996094" y="592.824219" xlink:href="#d"/>
  <use x="96.042969" y="592.824219" xlink:href="#b"/>
  <use x="101.679687" y="592.824219" xlink:href="#l"/>
  <use x="104.492188" y="592.824219" xlink:href="#a"/>
  <use x="110.058594" y="592.824219" xlink:href="#k"/>
  <use x="114.921875" y="592.824219" xlink:href="#c"/>
 </g>
</svg>
